HIERARCHY
ROOT root
{
	OFFSET	0	13.1	24.9
	CHANNELS 6  Xposition Yposition Zposition Xrotation Yrotation Zrotation
	JOINT spine_1
	{
		OFFSET	0	9.99999	0
		CHANNELS 3  Xrotation Yrotation Zrotation
		JOINT spine_2
		{
			OFFSET	0	112	-10
			CHANNELS 3  Xrotation Yrotation Zrotation
			JOINT spine_3
			{
				OFFSET	0	206.5	19.3
				CHANNELS 3  Xrotation Yrotation Zrotation
				JOINT spine_4
				{
					OFFSET	0	110.4	14.6
					CHANNELS 3  Xrotation Yrotation Zrotation
					JOINT neck_1
					{
						OFFSET	0	71.8	-50.3
						CHANNELS 3  Xrotation Yrotation Zrotation
						JOINT neck_2
						{
							OFFSET	0	86.2	-25.8
							CHANNELS 3  Xrotation Yrotation Zrotation
							JOINT head_ee
							{
								OFFSET	0	179.8	-8.7
								CHANNELS 3  Xrotation Yrotation Zrotation
								End Site
								{
									OFFSET	1	0	0
								}
							}
						}
					}
					JOINT left_clavicle
					{
						OFFSET	-43.2	22.4	-70.8
						CHANNELS 3  Xrotation Yrotation Zrotation
						JOINT left_shoulder
						{
							OFFSET	-93.9	-5.79999	48.7
							CHANNELS 3  Xrotation Yrotation Zrotation
							JOINT left_elbow
							{
								OFFSET	-291.4	-30.8	15.2
								CHANNELS 3  Xrotation Yrotation Zrotation
								JOINT left_lowarm_twist
								{
									OFFSET	-110.7	-3.89999	13.6
									CHANNELS 3  Xrotation Yrotation Zrotation
									JOINT left_hand
									{
										OFFSET	-110.7	-3.89999	13.6
										CHANNELS 3  Xrotation Yrotation Zrotation
										JOINT left_ee
										{
											OFFSET	-80.8	-5.10001	12.1
											CHANNELS 3  Xrotation Yrotation Zrotation
											End Site
											{
												OFFSET	1	0	0
											}
										}
									}
								}
							}
						}
					}
					JOINT right_clavicle
					{
						OFFSET	43.2	22.4	-70.8
						CHANNELS 3  Xrotation Yrotation Zrotation
						JOINT right_shoulder
						{
							OFFSET	93.9	-5.79999	48.7
							CHANNELS 3  Xrotation Yrotation Zrotation
							JOINT right_elbow
							{
								OFFSET	291.4	-30.8	15.2
								CHANNELS 3  Xrotation Yrotation Zrotation
								JOINT right_lowarm_twist
								{
									OFFSET	110.7	-3.89999	13.6
									CHANNELS 3  Xrotation Yrotation Zrotation
									JOINT right_hand
									{
										OFFSET	110.7	-3.89999	13.6
										CHANNELS 3  Xrotation Yrotation Zrotation
										JOINT right_ee
										{
											OFFSET	80.8	-5.10001	12.1
											CHANNELS 3  Xrotation Yrotation Zrotation
											End Site
											{
												OFFSET	1	0	0
											}
										}
									}
								}
							}
						}
					}
				}
			}
		}
	}
	JOINT left_hip
	{
		OFFSET	-82.8	-127.5	0.300001
		CHANNELS 3  Xrotation Yrotation Zrotation
		JOINT left_knee
		{
			OFFSET	-28.2	-396.7	2.2
			CHANNELS 3  Xrotation Yrotation Zrotation
			JOINT left_ankle
			{
				OFFSET	-11.7	-411.3	35.4
				CHANNELS 3  Xrotation Yrotation Zrotation
				JOINT left_toes
				{
					OFFSET	0	-60	-88.6
					CHANNELS 3  Xrotation Yrotation Zrotation
					JOINT left_foot_ee
					{
						OFFSET	-22.5	-16.5	-42.2
						CHANNELS 3  Xrotation Yrotation Zrotation
						End Site
						{
							OFFSET	1	0	0
						}
					}
				}
			}
		}
	}
	JOINT right_hip
	{
		OFFSET	82.8	-127.5	0.300001
		CHANNELS 3  Xrotation Yrotation Zrotation
		JOINT right_knee
		{
			OFFSET	28.2	-396.7	2.2
			CHANNELS 3  Xrotation Yrotation Zrotation
			JOINT right_ankle
			{
				OFFSET	11.7	-411.3	35.4
				CHANNELS 3  Xrotation Yrotation Zrotation
				JOINT right_toes
				{
					OFFSET	0	-60	-88.6
					CHANNELS 3  Xrotation Yrotation Zrotation
					JOINT right_foot_ee
					{
						OFFSET	22.5	-16.5	-42.2
						CHANNELS 3  Xrotation Yrotation Zrotation
						End Site
						{
							OFFSET	1	0	0
						}
					}
				}
			}
		}
	}
}
MOTION
Frames: 7
Frame Time: 0.02
1033.63199201 760.49 -1512.14591239 77.6881502574 83.3805097159 -76.9215334186 -1.96398 -0.240739 0.227321 -1.96399 -0.254716 0.211541 -1.96498 -0.298572 0.143125 -1.96491 -0.272221 0.188483 -11.9986 4.5622 -0.610883 -12.0406 9.04333 0.699026 -0.0 0.0 -0.0 5.92268 23.8461 10.8869 -10.6126 -30.5329 64.2772 0.18428 -5.21602 0.00839385 43.3033 -0.532135 -5.37633 -3.87106 29.105 -9.46408 -0.0 0.0 -0.0 11.1538 8.74722 -22.3777 36.2745 -52.8914 -61.693 1.25202 31.8065 -0.356738 50.6665 1.01694 6.18381 -1.17929 -28.8165 -4.86697 0.0 0.0 0.0 19.0338 -14.1233 -2.65764 -62.9053 -2.52174 8.83754 -24.5725 28.403 3.9275 -5.05918 0.0 0.0 -0.0 0.0 -0.0 7.0733 24.8941 -10.1231 -19.1526 -0.304759 -2.90966 24.8561 -24.4086 3.47865 11.5013 -0.0 -0.0 0.0 0.0 0.0 
1019.18964882 765.747 -1505.8679741 88.4712735139 83.299648639 -87.3671945532 -1.98667 -0.232727 0.0478512 -1.9867 -0.235301 0.0329451 -1.98687 -0.236229 -0.025451 -1.98679 -0.237284 0.0121766 -12.4239 3.63372 -2.46161 -12.4471 8.46606 -1.31165 -0.0 0.0 -0.0 6.39656 24.1566 11.5286 -13.2828 -30.3518 63.5026 0.156493 -4.43293 0.00605695 41.2483 -0.415778 -5.1406 -4.29394 29.3282 -11.6305 -0.0 0.0 -0.0 11.2168 9.17088 -22.5192 39.9479 -50.7321 -60.5925 1.25958 31.9611 -0.360731 53.0735 1.19753 6.43364 -0.786389 -28.8883 -7.01816 0.0 0.0 0.0 25.3394 -15.8777 0.306047 -65.1573 -2.78185 9.0681 -24.3163 26.0779 3.83378 -5.73815 0.0 0.0 -0.0 0.0 -0.0 5.24217 23.9595 -10.3488 -17.5365 -0.316828 -2.662 24.994 -27.4254 3.56028 7.15862 -0.0 -0.0 0.0 0.0 0.0 
1018.85116708 765.747 -1501.68337422 94.2461020622 83.2835246125 -93.1817648622 -1.98667 -0.232727 0.0478512 -1.9867 -0.235301 0.0329451 -1.98687 -0.236229 -0.025451 -1.98679 -0.237284 0.0121766 -12.4239 3.63372 -2.46161 -12.4471 8.46606 -1.31165 -0.0 0.0 -0.0 6.39656 24.1566 11.5286 -13.2828 -30.3518 63.5026 0.156493 -4.43293 0.00605695 41.2483 -0.415778 -5.1406 -4.29394 29.3282 -11.6305 -0.0 0.0 -0.0 11.2168 9.17088 -22.5192 39.9479 -50.7321 -60.5925 1.25958 31.9611 -0.360731 53.0735 1.19753 6.43364 -0.786389 -28.8883 -7.01816 0.0 0.0 0.0 25.3394 -15.8777 0.306047 -65.1573 -2.78185 9.0681 -24.3163 26.0779 3.83378 -5.73815 0.0 0.0 -0.0 0.0 -0.0 5.24217 23.9595 -10.3488 -17.5365 -0.316828 -2.662 24.994 -27.4254 3.56028 7.15862 -0.0 -0.0 0.0 0.0 0.0 
1005.95298874 762.93 -1479.606503 132.590752706 81.9715196595 -131.686025609 -1.83557 -0.326471 -0.0993263 -1.83563 -0.319489 -0.119899 -1.83497 -0.281103 -0.193469 -1.83489 -0.30813 -0.146645 -12.2147 2.70729 -2.67346 -12.2194 6.84825 -1.79631 -0.0 0.0 -0.0 6.5165 23.9538 11.7139 -14.5247 -28.7943 63.9487 0.14369 -4.07153 0.00510754 40.871 -0.39534 -5.09689 -4.53478 29.8134 -12.6222 -0.0 0.0 -0.0 11.2942 9.88356 -22.6921 43.0607 -48.6015 -59.8634 1.28584 32.4942 -0.374731 56.212 1.44853 6.7477 -0.16891 -28.8729 -10.3729 0.0 0.0 0.0 29.4281 -15.5037 1.89458 -65.5654 -2.82996 9.10879 -22.1225 26.1401 3.48821 -5.70217 0.0 0.0 -0.0 0.0 -0.0 3.33542 24.0914 -9.46201 -13.5998 -0.316974 -2.05812 26.739 -27.3537 3.77616 4.58236 -0.0 -0.0 0.0 0.0 0.0 
983.722348345 760.632 -1462.63558944 150.211707723 80.692078292 -150.53802358 -1.45084 -0.37297 -0.316873 -1.45085 -0.352051 -0.339964 -1.44868 -0.262381 -0.413123 -1.44878 -0.324333 -0.366501 -10.0627 3.35933 1.7457 -10.0634 5.14655 2.53919 -0.0 0.0 -0.0 6.18892 22.0318 11.3888 -15.615 -23.6969 65.2029 0.163275 -4.62423 0.00659241 41.4839 -0.428686 -5.16784 -4.65011 29.4176 -13.5309 -0.0 0.0 -0.0 11.1762 10.704 -22.425 43.5136 -42.9109 -59.5135 1.32443 33.2667 -0.395686 59.6869 1.74613 7.07897 0.101289 -29.3131 -12.0072 0.0 0.0 0.0 31.5411 -14.632 2.36229 -60.9387 -2.3022 8.62805 -19.5663 25.1503 3.06646 -3.73069 0.0 0.0 -0.0 0.0 -0.0 1.27107 25.6799 -7.6568 -11.5249 -0.300357 -1.74021 30.4066 -25.1624 4.15817 2.37345 -0.0 -0.0 0.0 0.0 0.0 
950.359285492 753.442 -1454.39255842 161.996699812 78.6543671889 -161.987570025 -1.06346 -0.325604 -0.047573 -1.06351 -0.321917 -0.0681958 -1.06315 -0.29785 -0.139881 -1.06304 -0.316203 -0.0910853 -8.61862 2.57484 3.63624 -8.58363 2.28027 4.16713 -0.0 0.0 -0.0 5.09519 22.3046 9.79059 -17.6322 -22.5277 65.4413 0.166102 -4.70393 0.00682225 42.9068 -0.50903 -5.33118 -4.84382 29.2918 -14.6959 -0.0 0.0 -0.0 11.1367 11.72 -22.3248 46.1191 -38.2996 -58.6127 1.41525 35.0313 -0.446673 67.4373 2.47888 7.74947 0.915507 -29.4075 -16.557 0.0 0.0 0.0 35.8279 -15.4622 1.9431 -50.9353 -1.3046 7.45463 -14.6197 25.3474 2.28628 -5.24223 0.0 0.0 -0.0 0.0 -0.0 -1.25225 24.1824 -6.61125 -10.3578 -0.285954 -1.56171 34.8716 -24.4492 4.63293 -0.566885 0.0 0.0 0.0 0.0 0.0 
928.027627622 747.631 -1449.88713945 165.014422284 77.8811456293 -164.885003434 -1.13083 -0.302967 -0.0458491 -1.13088 -0.299436 -0.0650349 -1.13056 -0.276529 -0.131997 -1.13047 -0.293905 -0.0866679 -8.22943 3.30956 3.3904 -8.20117 3.79645 4.08216 -0.0 0.0 -0.0 4.85862 22.1012 9.45709 -19.2119 -20.5414 64.2373 0.184528 -5.223 0.00841651 46.0885 -0.703225 -5.68894 -4.85877 29.3563 -14.733 -0.0 0.0 -0.0 11.1266 12.5221 -22.2876 45.0856 -34.2147 -60.7116 1.5857 38.1471 -0.548307 69.2954 2.66758 7.89513 1.29243 -29.423 -18.6982 0.0 0.0 0.0 34.6554 -17.0677 1.49001 -42.5759 -0.638726 6.35507 -7.20387 25.3632 1.1168 -5.27423 0.0 0.0 -0.0 0.0 -0.0 -1.38016 22.4211 -7.36094 -13.2209 -0.314798 -2.00001 39.4051 -19.6732 4.96573 -2.42126 0.0 0.0 0.0 0.0 0.0 
